<svg width="16" height="16" viewBox="0 0 16 16" fill="none" xmlns="http://www.w3.org/2000/svg">
<rect width="16" height="16" fill="black"/>
<path d="M8.99084 2.75555H11.7333V9.78908C11.7299 10.457 11.5614 11.0448 11.2278 11.5525C10.8975 12.0568 10.4405 12.4509 9.85661 12.7347C9.27609 13.0153 8.60717 13.1556 7.84983 13.1556C7.19258 13.1556 6.59205 13.042 6.04823 12.8149C5.50442 12.5845 5.0707 12.2238 4.74708 11.7328C4.42346 11.2385 4.26332 10.5973 4.26665 9.80912H7.04912C7.05913 10.0663 7.1025 10.2834 7.17923 10.4604C7.2593 10.6374 7.3694 10.771 7.50953 10.8611C7.65299 10.948 7.82647 10.9914 8.02999 10.9914C8.23684 10.9914 8.41032 10.9463 8.55045 10.8561C8.69391 10.766 8.80234 10.6324 8.87574 10.4554C8.94913 10.275 8.9875 10.0529 8.99084 9.78908V2.75555Z" fill="white"/>
</svg>
