<svg width="180" height="180" viewBox="0 0 180 180" fill="none" xmlns="http://www.w3.org/2000/svg">
<rect width="180" height="180" fill="black"/>
<path d="M101.148 31H132V110.127C131.962 117.642 130.067 124.254 126.314 129.965C122.598 135.639 117.456 140.072 110.888 143.266C104.357 146.422 96.8313 148 88.3113 148C80.9172 148 74.1613 146.723 68.0433 144.168C61.9254 141.575 57.0461 137.517 53.4054 131.994C49.7646 126.434 47.963 119.22 48.0006 110.353H79.3033C79.4159 113.246 79.9038 115.688 80.7671 117.679C81.6679 119.671 82.9065 121.173 84.4829 122.188C86.0968 123.165 88.0486 123.653 90.3381 123.653C92.6651 123.653 94.6169 123.146 96.1933 122.131C97.8072 121.117 99.027 119.614 99.8528 117.623C100.679 115.594 101.11 113.095 101.148 110.127V31Z" fill="white"/>
</svg>
