<svg width="32" height="32" viewBox="0 0 32 32" fill="none" xmlns="http://www.w3.org/2000/svg">
<rect width="32" height="32" fill="black"/>
<path d="M17.9819 5.51111H23.4668V19.5782C23.4601 20.9141 23.1231 22.0897 22.4559 23.1049C21.7953 24.1135 20.8812 24.9017 19.7135 25.4695C18.5524 26.0306 17.2146 26.3111 15.6999 26.3111C14.3854 26.3111 13.1843 26.084 12.0967 25.6298C11.0091 25.1689 10.1416 24.4475 9.4944 23.4656C8.84716 22.4771 8.52688 21.1946 8.53355 19.6182H14.0985C14.1185 20.1326 14.2052 20.5667 14.3587 20.9207C14.5189 21.2748 14.739 21.5419 15.0193 21.7223C15.3062 21.896 15.6532 21.9828 16.0602 21.9828C16.4739 21.9828 16.8209 21.8926 17.1011 21.7123C17.3881 21.5319 17.6049 21.2647 17.7517 20.9107C17.8985 20.55 17.9752 20.1058 17.9819 19.5782V5.51111Z" fill="white"/>
</svg>
